<svg xmlns="http://www.w3.org/2000/svg" width="1024" height="500" viewBox="0 0 1024 500">
  <rect width="1024" height="500" fill="#0B1F33"/>
  <g fill="#163653" opacity="0.8">
    <circle cx="74" cy="62" r="18"/><circle cx="178" cy="438" r="28"/>
    <circle cx="904" cy="76" r="30"/><circle cx="962" cy="408" r="18"/>
  </g>
  <g transform="translate(512 264)">
    <rect x="-210" y="-123" width="168" height="236" rx="22" fill="#8E5BEE" transform="rotate(-20)"/>
    <rect x="-84" y="-136" width="168" height="236" rx="22" fill="#C8FAFB"/>
    <rect x="42" y="-123" width="168" height="236" rx="22" fill="#F7FCFF" transform="rotate(20)"/>
    <path d="M0-76C-44-30-86 6-86 43c0 30 24 52 53 52 13 0 24-4 33-11-8 20-19 34-35 48h70C19 118 8 104 0 84c9 7 20 11 33 11 29 0 53-22 53-52C86 6 44-30 0-76Z" fill="#08DCE8"/>
  </g>
  <path d="M160 112h14v14h14v14h-14v14h-14v-14h-14v-14h14Z" fill="#08DCE8"/>
</svg>

